<svg width="340" height="952" viewBox="0 0 340 952" class="keymap" xmlns="http://www.w3.org/2000/svg" xmlns:xlink="http://www.w3.org/1999/xlink">
<style>/* inherit to force styles through use tags */
svg path {
    fill: inherit;
}

/* font and background color specifications */
svg.keymap {
    font-family: SFMono-Regular,Consolas,Liberation Mono,Menlo,monospace;
    font-size: 14px;
    font-kerning: normal;
    text-rendering: optimizeLegibility;
    fill: #24292e;
}

/* default key styling */
rect.key {
    fill: #f6f8fa;
}

rect.key, rect.combo {
    stroke: #c9cccf;
    stroke-width: 1;
}

/* default key side styling, only used is draw_key_sides is set */
rect.side {
    filter: brightness(90%);
}

/* color accent for combo boxes */
rect.combo, rect.combo-separate {
    fill: #cdf;
}

/* color accent for held keys */
rect.held, rect.combo.held {
    fill: #fdd;
}

/* color accent for ghost (optional) keys */
rect.ghost, rect.combo.ghost {
    stroke-dasharray: 4, 4;
    stroke-width: 2;
}

text {
    text-anchor: middle;
    dominant-baseline: middle;
}

/* styling for layer labels */
text.label {
    font-weight: bold;
    text-anchor: start;
    stroke: white;
    stroke-width: 4;
    paint-order: stroke;
}

/* styling for optional footer */
text.footer {
    text-anchor: end;
    dominant-baseline: auto;
    stroke: white;
    stroke-width: 4;
    paint-order: stroke;
}

/* styling for combo tap, and key non-tap label text */
text.combo, text.hold, text.shifted, text.left, text.right {
    font-size: 11px;
}

text.hold {
    text-anchor: middle;
    dominant-baseline: auto;
}

text.shifted {
    text-anchor: middle;
    dominant-baseline: hanging;
}

text.left {
    text-anchor: start;
}

text.right {
    text-anchor: end;
}

text.layer-activator {
    text-decoration: underline;
}

/* styling for hold/shifted label text in combo box */
text.combo.hold, text.combo.shifted, text.combo.left, text.combo.right {
    font-size: 8px;
}

/* lighter symbol for transparent keys */
text.trans {
    fill: #7b7e81;
}

/* styling for combo dendrons */
path.combo {
    stroke-width: 1;
    stroke: gray;
    fill: none;
}

/* Start Tabler Icons Cleanup */
/* cannot use height/width with glyphs */
.icon-tabler > path {
    fill: inherit;
    stroke: inherit;
    stroke-width: 2;
}
/* hide tabler's default box */
.icon-tabler > path[stroke="none"][fill="none"] {
    visibility: hidden;
}
/* End Tabler Icons Cleanup */
</style>
<g transform="translate(30, 0)" class="layer-default">
<text x="0" y="28" class="label" id="default">default:</text>
<g transform="translate(0, 56)">
<g transform="translate(84, 28)" class="key keypos-0">
<rect rx="6" ry="6" x="-26" y="-26" width="52" height="52" class="key"/>
<text x="0" y="0" class="key tap">Y</text>
</g>
<g transform="translate(140, 28)" class="key keypos-1">
<rect rx="6" ry="6" x="-26" y="-26" width="52" height="52" class="key"/>
<text x="0" y="0" class="key tap">W</text>
</g>
<g transform="translate(196, 28)" class="key keypos-2">
<rect rx="6" ry="6" x="-26" y="-26" width="52" height="52" class="key"/>
<text x="0" y="0" class="key tap">R</text>
</g>
<g transform="translate(252, 28)" class="key keypos-3">
<rect rx="6" ry="6" x="-26" y="-26" width="52" height="52" class="key"/>
<text x="0" y="0" class="key tap">&amp;td5</text>
<text x="0" y="24" class="key hold"><tspan style="font-size: 64%">&amp;mouse_ges…</tspan></text>
</g>
<g transform="translate(28, 84)" class="key keypos-4">
<rect rx="6" ry="6" x="-18" y="-18" width="35" height="35" class="key"/>
<text x="0" y="0" class="key tap">H</text>
</g>
<g transform="translate(84, 84)" class="key keypos-5">
<rect rx="6" ry="6" x="-26" y="-26" width="52" height="52" class="key"/>
<text x="0" y="0" class="key tap">W</text>
</g>
<g transform="translate(140, 84)" class="key keypos-6">
<rect rx="6" ry="6" x="-26" y="-26" width="52" height="52" class="key"/>
<text x="0" y="0" class="key tap">R</text>
</g>
<g transform="translate(196, 84)" class="key keypos-7">
<rect rx="6" ry="6" x="-26" y="-26" width="52" height="52" class="key"/>
<text x="0" y="0" class="key tap">L</text>
</g>
<g transform="translate(252, 84)" class="key keypos-8">
<rect rx="6" ry="6" x="-26" y="-26" width="52" height="52" class="key"/>
<a href="#setting">
<text x="0" y="0" class="key tap layer-activator">setting</text>
</a></g>
<g transform="translate(28, 140)" class="key keypos-9">
<rect rx="6" ry="6" x="-26" y="-26" width="52" height="52" class="key"/>
<text x="0" y="0" class="key tap">
<tspan x="0" dy="-0.6em">&amp;mkp</tspan><tspan x="0" dy="1.2em">MB1</tspan>
</text>
</g>
<g transform="translate(84, 140)" class="key keypos-10">
<rect rx="6" ry="6" x="-26" y="-26" width="52" height="52" class="key"/>
<text x="0" y="0" class="key tap">
<tspan x="0" dy="-0.6em">&amp;mkp</tspan><tspan x="0" dy="1.2em">MB3</tspan>
</text>
</g>
<g transform="translate(140, 140)" class="key keypos-11">
<rect rx="6" ry="6" x="-26" y="-26" width="52" height="52" class="key"/>
<text x="0" y="0" class="key tap">,</text>
</g>
<g transform="translate(196, 140)" class="key keypos-12">
<rect rx="6" ry="6" x="-26" y="-26" width="52" height="52" class="key"/>
<text x="0" y="0" class="key tap">.</text>
</g>
<g transform="translate(252, 140)" class="key keypos-13">
<rect rx="6" ry="6" x="-26" y="-26" width="52" height="52" class="key"/>
<text x="0" y="0" class="key tap">
<tspan x="0" dy="-0.6em">UP</tspan><tspan x="0" dy="1.2em">ARROW</tspan>
</text>
</g>
<g class="combo combopos-0">
<rect rx="6" ry="6" x="98" y="15" width="28" height="26" class="combo"/>
<a href="#setting">
<text x="112" y="28" class="combo tap layer-activator">setting</text>
</a></g>
</g>
</g>
<g transform="translate(30, 224)" class="layer-SCROLL">
<text x="0" y="28" class="label" id="SCROLL">SCROLL:</text>
<g transform="translate(0, 56)">
<g transform="translate(84, 28)" class="key keypos-0">
<rect rx="6" ry="6" x="-26" y="-26" width="52" height="52" class="key"/>
</g>
<g transform="translate(140, 28)" class="key keypos-1">
<rect rx="6" ry="6" x="-26" y="-26" width="52" height="52" class="key"/>
</g>
<g transform="translate(196, 28)" class="key keypos-2">
<rect rx="6" ry="6" x="-26" y="-26" width="52" height="52" class="key"/>
</g>
<g transform="translate(252, 28)" class="key keypos-3">
<rect rx="6" ry="6" x="-26" y="-26" width="52" height="52" class="key"/>
</g>
<g transform="translate(28, 84)" class="key keypos-4">
<rect rx="6" ry="6" x="-18" y="-18" width="35" height="35" class="key"/>
</g>
<g transform="translate(84, 84)" class="key keypos-5">
<rect rx="6" ry="6" x="-26" y="-26" width="52" height="52" class="key"/>
</g>
<g transform="translate(140, 84)" class="key keypos-6">
<rect rx="6" ry="6" x="-26" y="-26" width="52" height="52" class="key"/>
</g>
<g transform="translate(196, 84)" class="key keypos-7">
<rect rx="6" ry="6" x="-26" y="-26" width="52" height="52" class="key"/>
</g>
<g transform="translate(252, 84)" class="key keypos-8">
<rect rx="6" ry="6" x="-26" y="-26" width="52" height="52" class="key"/>
</g>
<g transform="translate(28, 140)" class="key keypos-9">
<rect rx="6" ry="6" x="-26" y="-26" width="52" height="52" class="key"/>
</g>
<g transform="translate(84, 140)" class="key keypos-10">
<rect rx="6" ry="6" x="-26" y="-26" width="52" height="52" class="key"/>
</g>
<g transform="translate(140, 140)" class="key keypos-11">
<rect rx="6" ry="6" x="-26" y="-26" width="52" height="52" class="key"/>
</g>
<g transform="translate(196, 140)" class="key keypos-12">
<rect rx="6" ry="6" x="-26" y="-26" width="52" height="52" class="key"/>
</g>
<g transform="translate(252, 140)" class="key keypos-13">
<rect rx="6" ry="6" x="-26" y="-26" width="52" height="52" class="key"/>
</g>
</g>
</g>
<g transform="translate(30, 448)" class="layer-setting">
<text x="0" y="28" class="label" id="setting">setting:</text>
<g transform="translate(0, 56)">
<g transform="translate(84, 28)" class="key keypos-0">
<rect rx="6" ry="6" x="-26" y="-26" width="52" height="52" class="key"/>
</g>
<g transform="translate(140, 28)" class="key keypos-1">
<rect rx="6" ry="6" x="-26" y="-26" width="52" height="52" class="key"/>
</g>
<g transform="translate(196, 28)" class="key keypos-2">
<rect rx="6" ry="6" x="-26" y="-26" width="52" height="52" class="key"/>
</g>
<g transform="translate(252, 28)" class="key keypos-3">
<rect rx="6" ry="6" x="-26" y="-26" width="52" height="52" class="key"/>
<text x="0" y="0" class="key tap">
<tspan x="0" dy="-0.6em">BT</tspan><tspan x="0" dy="1.2em">CLR</tspan>
</text>
</g>
<g transform="translate(28, 84)" class="key keypos-4">
<rect rx="6" ry="6" x="-18" y="-18" width="35" height="35" class="key"/>
<text x="0" y="0" class="key tap">Boot</text>
</g>
<g transform="translate(84, 84)" class="key keypos-5">
<rect rx="6" ry="6" x="-26" y="-26" width="52" height="52" class="key"/>
</g>
<g transform="translate(140, 84)" class="key keypos-6">
<rect rx="6" ry="6" x="-26" y="-26" width="52" height="52" class="key"/>
</g>
<g transform="translate(196, 84)" class="key keypos-7">
<rect rx="6" ry="6" x="-26" y="-26" width="52" height="52" class="key"/>
<text x="0" y="0" class="key tap">
<tspan x="0" dy="-1.2em">BT</tspan><tspan x="0" dy="1.2em">CLR</tspan><tspan x="0" dy="1.2em">ALL</tspan>
</text>
</g>
<g transform="translate(252, 84)" class="key held keypos-8">
<rect rx="6" ry="6" x="-26" y="-26" width="52" height="52" class="key held"/>
</g>
<g transform="translate(28, 140)" class="key keypos-9">
<rect rx="6" ry="6" x="-26" y="-26" width="52" height="52" class="key"/>
<text x="0" y="0" class="key tap">
<tspan x="0" dy="-0.6em">BT</tspan><tspan x="0" dy="1.2em">1</tspan>
</text>
</g>
<g transform="translate(84, 140)" class="key keypos-10">
<rect rx="6" ry="6" x="-26" y="-26" width="52" height="52" class="key"/>
<text x="0" y="0" class="key tap">
<tspan x="0" dy="-0.6em">BT</tspan><tspan x="0" dy="1.2em">2</tspan>
</text>
</g>
<g transform="translate(140, 140)" class="key keypos-11">
<rect rx="6" ry="6" x="-26" y="-26" width="52" height="52" class="key"/>
<text x="0" y="0" class="key tap">
<tspan x="0" dy="-0.6em">BT</tspan><tspan x="0" dy="1.2em">3</tspan>
</text>
</g>
<g transform="translate(196, 140)" class="key keypos-12">
<rect rx="6" ry="6" x="-26" y="-26" width="52" height="52" class="key"/>
<text x="0" y="0" class="key tap">
<tspan x="0" dy="-0.6em">BT</tspan><tspan x="0" dy="1.2em">4</tspan>
</text>
</g>
<g transform="translate(252, 140)" class="key keypos-13">
<rect rx="6" ry="6" x="-26" y="-26" width="52" height="52" class="key"/>
<text x="0" y="0" class="key tap">
<tspan x="0" dy="-0.6em">BT</tspan><tspan x="0" dy="1.2em">5</tspan>
</text>
</g>
</g>
</g>
<g transform="translate(30, 672)" class="layer-to_ALT">
<text x="0" y="28" class="label" id="to_ALT">to_ALT:</text>
<g transform="translate(0, 56)">
<g transform="translate(84, 28)" class="key keypos-0">
<rect rx="6" ry="6" x="-26" y="-26" width="52" height="52" class="key"/>
</g>
<g transform="translate(140, 28)" class="key keypos-1">
<rect rx="6" ry="6" x="-26" y="-26" width="52" height="52" class="key"/>
</g>
<g transform="translate(196, 28)" class="key keypos-2">
<rect rx="6" ry="6" x="-26" y="-26" width="52" height="52" class="key"/>
</g>
<g transform="translate(252, 28)" class="key keypos-3">
<rect rx="6" ry="6" x="-26" y="-26" width="52" height="52" class="key"/>
</g>
<g transform="translate(28, 84)" class="key keypos-4">
<rect rx="6" ry="6" x="-18" y="-18" width="35" height="35" class="key"/>
</g>
<g transform="translate(84, 84)" class="key keypos-5">
<rect rx="6" ry="6" x="-26" y="-26" width="52" height="52" class="key"/>
</g>
<g transform="translate(140, 84)" class="key keypos-6">
<rect rx="6" ry="6" x="-26" y="-26" width="52" height="52" class="key"/>
</g>
<g transform="translate(196, 84)" class="key keypos-7">
<rect rx="6" ry="6" x="-26" y="-26" width="52" height="52" class="key"/>
</g>
<g transform="translate(252, 84)" class="key keypos-8">
<rect rx="6" ry="6" x="-26" y="-26" width="52" height="52" class="key"/>
</g>
<g transform="translate(28, 140)" class="key keypos-9">
<rect rx="6" ry="6" x="-26" y="-26" width="52" height="52" class="key"/>
</g>
<g transform="translate(84, 140)" class="key keypos-10">
<rect rx="6" ry="6" x="-26" y="-26" width="52" height="52" class="key"/>
</g>
<g transform="translate(140, 140)" class="key keypos-11">
<rect rx="6" ry="6" x="-26" y="-26" width="52" height="52" class="key"/>
</g>
<g transform="translate(196, 140)" class="key keypos-12">
<rect rx="6" ry="6" x="-26" y="-26" width="52" height="52" class="key"/>
</g>
<g transform="translate(252, 140)" class="key keypos-13">
<rect rx="6" ry="6" x="-26" y="-26" width="52" height="52" class="key"/>
</g>
</g>
</g>
<text x="310.0" y="924.0" class="footer">Enigma_04 KEYMAPS | Created with keymap-drawer</text></svg>
